<?xml version="1.0" encoding="UTF-8"?>
<!-- Created with Inkscape (http://www.inkscape.org/) -->
<svg width="67.5mm" height="38.5mm" version="1.1" viewBox="0 0 67.5 38.5" xmlns="http://www.w3.org/2000/svg" xmlns:xlink="http://www.w3.org/1999/xlink">
 <defs>
  <clipPath id="clipPath8">
   <path d="m76 2v46h-22v23h-18.419c-0.07818 0.66569-0.14148 1.3329-0.20574 2-1.1512 12.531 1.0364 24.088 6.0625 33.969l1.6875 3.0312c1.0114 1.8168 2.1912 3.523 3.4375 5.1875 1.2447 1.6625 1.6857 2.5826 2.4688 3.6875 13.289 14.936 33.098 22.125 55.969 22.125 50.648 0 93.633-22.438 112.66-72.844 13.497 1.385 26.443-2.0759 32.344-13.594-9.3986-5.4237-21.478-3.6853-28.438-0.1875l18.438-52.375-72 46h-23v-46z"/>
  </clipPath>
 </defs>
 <path d="m38.945 12.172h6.05v6.1846h3.0591c1.4126 0 2.8656-0.25167 4.2034-0.70497 0.65735-0.2229 1.3952-0.53308 2.0436-0.92319-0.85404-1.115-1.2901-2.523-1.4184-3.9108-0.17429-1.8876 0.20646-4.3446 1.484-5.822l0.63596-0.73557 0.75782 0.60918c1.908 1.5329 3.5126 3.6749 3.7955 6.1167 2.2974-0.67577 4.9947-0.51593 7.0198 0.65282l0.8308 0.47938-0.43729 0.85347c-1.7126 3.3426-5.293 4.378-8.7934 4.1948-5.238 13.046-16.642 19.223-30.469 19.223-7.1435 0-13.697-2.6704-17.43-9.0082-0.21882-0.39369-0.4062-0.80536-0.60492-1.2097-1.2616-2.7898-1.6806-5.846-1.3963-8.8997l0.0853-0.91468h5.1734v-6.1846h6.05v-6.05h12.1v-6.05h7.2601v12.1" fill="#394d54" stroke-width=".26458"/>
 <g transform="matrix(.26458 0 0 .26458 -.078175 .071866)" clip-path="url(#clipPath8)">
  <g id="g18">
   <g id="g20" transform="translate(0,-22.866)">
    <path d="m123.86 3.8111h19.818v19.817h-19.818z" fill="#00acd3"/>
    <path d="m123.86 26.676h19.818v19.818h-19.818z" fill="#20c2ef"/>
    <path id="path26" d="m126.29 21.977v-16.516m2.9718 16.516v-16.516m3.0018 16.516v-16.516m3.0034 16.516v-16.516m3.0029 16.516v-16.516m2.9713 16.516v-16.516" stroke="#394d54" stroke-width="1.56"/>
    <use transform="translate(0,22.866)" xlink:href="#path26"/>
   </g>
   <use transform="matrix(1 0 0 -1 22.866 4.5727)" xlink:href="#g20"/>
  </g>
  <use transform="translate(-91.464,45.732)" xlink:href="#g18"/>
  <use transform="translate(-45.732,45.732)" xlink:href="#g18"/>
  <use transform="translate(0,45.732)" xlink:href="#g18"/>
 </g>
 <path transform="matrix(.26458 0 0 .26458 -.078175 .071866)" d="m221.57 54.38c1.5333-11.915-7.3838-21.275-12.914-25.718-6.3727 7.3678-7.363 26.678 2.635 34.807-5.5795 4.9561-17.337 9.4484-29.376 9.4484h-147.92c-1.1707 12.567 0 73.083 0 73.083h217l-0.98657-91.424c-9.3986-5.4237-21.484-3.6943-28.443-0.19655" clip-path="url(#clipPath8)" fill="#17b5eb"/>
 <path transform="matrix(.26458 0 0 .26458 -.078175 .071866)" d="m34 89v57h217v-57" clip-path="url(#clipPath8)" fill-opacity=".17"/>
 <path transform="matrix(.26458 0 0 .26458 -.078175 .071866)" d="m111.24 140.89c-13.54-6.4252-20.972-15.159-25.107-24.694l-41.131 1.8044 21 28 45.237-5.11" clip-path="url(#clipPath8)" fill="#d4edf1"/>
 <path transform="matrix(.26458 0 0 .26458 -.078175 .071866)" d="m222.5 53.938v0.03125c-20.861 26.889-50.783 50.379-82.906 62.719-28.655 11.008-53.638 11.06-70.875 2.2188-1.8561-1.0483-3.6757-2.2115-5.5-3.3125-12.637-8.832-19.754-23.441-19.156-42.688h-10.062v73.094h217v-96h-25z" clip-path="url(#clipPath8)" fill-opacity=".085"/>
 <path d="m11.993 31.036c3.7479 0.20514 7.7476 0.24192 11.237-0.85162" fill="none" stroke="#394d54" stroke-linecap="round" stroke-width=".89958"/>
 <g stroke-width=".26458">
  <path d="m26.954 28.371c0 0.79878-0.64758 1.4464-1.4463 1.4464-0.79891 0-1.4466-0.64757-1.4466-1.4464 0-0.79877 0.64772-1.4466 1.4466-1.4466 0.79877 0 1.4463 0.64786 1.4463 1.4466z" fill="#d4edf1"/>
  <path d="m25.883 27.405c-0.12626 0.073-0.2117 0.20972-0.2117 0.36616 0 0.23352 0.18931 0.42256 0.42284 0.42256 0.15998 0 0.29899-0.0888 0.37083-0.22007 0.05073 0.12229 0.07893 0.25662 0.07893 0.39747 0 0.57205-0.46379 1.0358-1.036 1.0358-0.57205 0-1.0361-0.46379-1.0361-1.0358 0-0.57233 0.46407-1.0363 1.0361-1.0363 0.13235 0 0.2586 0.0249 0.37508 0.0701z" fill="#394d54"/>
  <path d="m-0.078175 23.927h67.291c-1.4652-0.37168-4.6358-0.87373-4.1129-2.7939-2.6641 3.0829-9.0892 2.1628-10.711 0.64262-1.8057 2.6189-12.318 1.6235-13.051-0.41675-2.2637 2.6566-9.2782 2.6566-11.542 0-0.73345 2.0402-11.245 3.0357-13.051 0.41675-1.6215 1.5202-8.046 2.4402-10.71-0.64262 0.52288 1.9202-2.6477 2.4222-4.1132 2.7939" fill="#394d54"/>
 </g>
</svg>
