<?xml version="1.0" encoding="UTF-8" standalone="no"?>
<svg
   viewBox="0 0 16.1 20"
   fill="none"
   role="presentation"
   class="css-1r6i2mo e1skfx025"
   version="1.1"
   id="svg63"
   sodipodi:docname="Storybook.svg"
   width="16.1"
   height="20"
   inkscape:version="1.2.2 (b0a8486541, 2022-12-01)"
   xmlns:inkscape="http://www.inkscape.org/namespaces/inkscape"
   xmlns:sodipodi="http://sodipodi.sourceforge.net/DTD/sodipodi-0.dtd"
   xmlns="http://www.w3.org/2000/svg"
   xmlns:svg="http://www.w3.org/2000/svg">
  <defs
     id="defs67" />
  <sodipodi:namedview
     id="namedview65"
     pagecolor="#505050"
     bordercolor="#eeeeee"
     borderopacity="1"
     inkscape:showpageshadow="0"
     inkscape:pageopacity="0"
     inkscape:pagecheckerboard="0"
     inkscape:deskcolor="#505050"
     showgrid="false"
     inkscape:zoom="27.14"
     inkscape:cx="15.917465"
     inkscape:cy="8.0140015"
     inkscape:window-width="1916"
     inkscape:window-height="1020"
     inkscape:window-x="0"
     inkscape:window-y="42"
     inkscape:window-maximized="1"
     inkscape:current-layer="svg63" />
  <path
     d="M 0.62,18.43 0,1.92 A 1.006,1.006 0 0 1 0.944,0.88 l 14.04,-0.878 a 1.005,1.005 0 0 1 1.069,1.004 v 17.989 a 1.006,1.006 0 0 1 -1.051,1.004 L 1.58,19.396 A 1.006,1.006 0 0 1 0.62,18.429 Z"
     fill="#ff4785"
     id="path59" />
  <path
     fill-rule="evenodd"
     clip-rule="evenodd"
     d="m 13.88,0.071 -1.932,0.12 -0.094,2.267 a 0.15,0.15 0 0 0 0.24,0.126 l 0.88,-0.668 0.744,0.586 a 0.15,0.15 0 0 0 0.243,-0.123 l -0.08,-2.308 z m -1.504,7.59 C 12.023,7.936 9.387,8.123 9.387,7.732 9.443,6.239 8.775,6.174 8.403,6.174 8.051,6.174 7.457,6.28 7.457,7.08 c 0,0.815 0.868,1.275 1.887,1.815 1.447,0.767 3.2,1.696 3.2,4.032 0,2.24 -1.82,3.476 -4.14,3.476 -2.395,0 -4.488,-0.969 -4.252,-4.328 0.093,-0.394 3.138,-0.3 3.138,0 -0.038,1.386 0.278,1.794 1.076,1.794 0.613,0 0.891,-0.338 0.891,-0.906 0,-0.861 -0.904,-1.369 -1.945,-1.953 C 5.903,10.219 4.245,9.288 4.245,7.151 c 0,-2.132 1.466,-3.554 4.084,-3.554 2.618,0 4.047,1.4 4.047,4.064 z"
     fill="#ffffff"
     id="path61" />
</svg>
